<?xml version="1.0" encoding="UTF-8"?>
<svg id="Layer_1" data-name="Layer 1" xmlns="http://www.w3.org/2000/svg" viewBox="0 0 216 216">
  <defs>
    <style>
      .cls-1 {
        fill: none;
        stroke: #afa8ca;
        stroke-miterlimit: 10;
        stroke-width: 17px;
      }
    </style>
  </defs>
  <path class="cls-1" d="M180.46,175.49c-11.3,11.19-36.61-1.34-51.22,2.62s-30.29,27.57-45.33,24.04c-14.72-3.46-17.84-31.07-29.53-41.84-11.61-10.69-39.13-11.36-43.31-25.17s18.44-30.18,22.24-44.74-8.99-38.79,2.22-49.89c11.3-11.19,36.61,1.34,51.22-2.62s30.29-27.57,45.33-24.04,17.84,31.07,29.53,41.84c11.61,10.69,39.13,11.36,43.31,25.17s-18.44,30.18-22.24,44.74,8.99,38.79-2.22,49.89Z"/>
</svg>