<?xml version="1.0" encoding="UTF-8"?>
<svg id="Layer_1" data-name="Layer 1" xmlns="http://www.w3.org/2000/svg" viewBox="0 0 216 216">
  <defs>
    <style>
      .cls-1 {
        fill: #f6ecd2;
      }

      .cls-2 {
        fill: #dcaa27;
      }
    </style>
  </defs>
  <polygon class="cls-2" points="28.91 112.57 40.35 96.47 51.78 112.57 67.88 124 51.78 135.44 40.35 151.54 28.91 135.44 12.81 124 28.91 112.57"/>
  <polygon class="cls-2" points="84.07 112.57 95.51 96.47 106.94 112.57 123.04 124 106.94 135.44 95.51 151.54 84.07 135.44 67.97 124 84.07 112.57"/>
  <polygon class="cls-1" points="90.22 129.29 82.77 124 90.22 118.71 95.51 111.27 100.8 118.71 108.24 124 100.79 129.29 95.51 136.74 90.22 129.29"/>
  <polygon class="cls-2" points="54.62 146.39 66.06 130.29 77.5 146.39 93.59 157.83 77.5 169.26 66.06 185.36 54.62 169.26 38.52 157.83 54.62 146.39"/>
  <polygon class="cls-2" points="109.78 146.39 121.22 130.29 132.65 146.39 148.75 157.83 132.65 169.26 121.22 185.36 109.78 169.26 93.68 157.83 109.78 146.39"/>
  <polygon class="cls-1" points="115.93 163.12 108.48 157.83 115.93 152.54 121.22 145.09 126.51 152.54 133.95 157.83 126.51 163.12 121.22 170.56 115.93 163.12"/>
  <polygon class="cls-2" points="164.22 147.3 175.65 131.2 187.09 147.3 203.19 158.74 187.09 170.17 175.65 186.27 164.22 170.17 148.12 158.74 164.22 147.3"/>
  <polygon class="cls-2" points="28.91 45.83 40.35 29.73 51.78 45.83 67.88 57.26 51.78 68.7 40.35 84.8 28.91 68.7 12.81 57.26 28.91 45.83"/>
  <polygon class="cls-2" points="54.62 79.65 66.06 63.55 77.5 79.65 93.59 91.09 77.5 102.52 66.06 118.62 54.62 102.52 38.52 91.09 54.62 79.65"/>
  <polygon class="cls-1" points="60.77 96.38 53.32 91.09 60.77 85.8 66.06 78.35 71.35 85.8 78.79 91.09 71.35 96.38 66.06 103.82 60.77 96.38"/>
  <polygon class="cls-2" points="109.78 79.65 121.22 63.55 132.65 79.65 148.75 91.09 132.65 102.52 121.22 118.62 109.78 102.52 93.68 91.09 109.78 79.65"/>
  <polygon class="cls-1" points="115.93 96.38 108.48 91.09 115.93 85.8 121.22 78.35 126.51 85.8 133.95 91.09 126.51 96.38 121.22 103.82 115.93 96.38"/>
</svg>