<?xml version="1.0" encoding="UTF-8"?>
<svg id="Layer_1" data-name="Layer 1" xmlns="http://www.w3.org/2000/svg" viewBox="0 0 216 216">
  <defs>
    <style>
      .cls-1 {
        fill: #f6ecd2;
      }

      .cls-2 {
        fill: #dcaa27;
      }
    </style>
  </defs>
  <polygon class="cls-2" points="21.38 153.34 30.64 140.3 39.89 153.34 52.93 162.59 39.89 171.85 30.64 184.89 21.38 171.85 8.34 162.59 21.38 153.34"/>
  <polygon class="cls-1" points="26.35 166.88 20.32 162.59 26.35 158.31 30.64 152.28 34.92 158.31 40.95 162.59 34.92 166.88 30.64 172.91 26.35 166.88"/>
  <polygon class="cls-2" points="66.04 153.34 75.3 140.3 84.56 153.34 97.59 162.59 84.56 171.85 75.3 184.89 66.04 171.85 53 162.59 66.04 153.34"/>
  <polygon class="cls-2" points="110.63 152.96 119.89 139.93 129.14 152.96 142.18 162.22 129.14 171.48 119.89 184.52 110.63 171.48 97.59 162.22 110.63 152.96"/>
  <polygon class="cls-1" points="115.6 166.51 109.57 162.22 115.6 157.94 119.89 151.91 124.17 157.94 130.2 162.22 124.17 166.51 119.89 172.54 115.6 166.51"/>
  <polygon class="cls-2" points="42.19 180.72 51.45 167.69 60.71 180.72 73.75 189.98 60.71 199.24 51.45 212.28 42.19 199.24 29.16 189.98 42.19 180.72"/>
  <polygon class="cls-2" points="86.86 180.72 96.11 167.69 105.37 180.72 118.41 189.98 105.37 199.24 96.11 212.28 86.86 199.24 73.82 189.98 86.86 180.72"/>
  <polygon class="cls-1" points="91.83 194.26 85.8 189.98 91.83 185.7 96.11 179.67 100.4 185.7 106.43 189.98 100.4 194.26 96.11 200.29 91.83 194.26"/>
  <polygon class="cls-2" points="130.93 181.46 140.19 168.43 149.45 181.46 162.48 190.72 149.45 199.98 140.19 213.01 130.93 199.98 117.89 190.72 130.93 181.46"/>
  <polygon class="cls-2" points="176.11 180.72 185.36 167.69 194.62 180.72 207.66 189.98 194.62 199.24 185.36 212.28 176.11 199.24 163.07 189.98 176.11 180.72"/>
  <polygon class="cls-1" points="181.08 194.26 175.05 189.98 181.08 185.7 185.36 179.67 189.65 185.7 195.68 189.98 189.65 194.26 185.36 200.29 181.08 194.26"/>
  <polygon class="cls-2" points="21.38 99.3 30.64 86.26 39.89 99.3 52.93 108.56 39.89 117.82 30.64 130.85 21.38 117.82 8.34 108.56 21.38 99.3"/>
  <polygon class="cls-2" points="66.04 99.3 75.3 86.26 84.56 99.3 97.59 108.56 84.56 117.82 75.3 130.85 66.04 117.82 53 108.56 66.04 99.3"/>
  <polygon class="cls-1" points="71.01 112.84 64.98 108.56 71.01 104.27 75.3 98.24 79.58 104.27 85.61 108.56 79.58 112.84 75.3 118.87 71.01 112.84"/>
  <polygon class="cls-2" points="110.63 98.93 119.89 85.89 129.14 98.93 142.18 108.19 129.14 117.44 119.89 130.48 110.63 117.44 97.59 108.19 110.63 98.93"/>
  <polygon class="cls-2" points="155.29 98.93 164.55 85.89 173.81 98.93 186.84 108.19 173.81 117.44 164.55 130.48 155.29 117.44 142.25 108.19 155.29 98.93"/>
  <polygon class="cls-1" points="160.26 112.47 154.23 108.19 160.26 103.9 164.55 97.87 168.83 103.9 174.86 108.19 168.83 112.47 164.55 118.5 160.26 112.47"/>
  <polygon class="cls-2" points="42.19 126.68 51.45 113.65 60.71 126.68 73.75 135.94 60.71 145.2 51.45 158.24 42.19 145.2 29.16 135.94 42.19 126.68"/>
  <polygon class="cls-2" points="86.86 126.68 96.11 113.65 105.37 126.68 118.41 135.94 105.37 145.2 96.11 158.24 86.86 145.2 73.82 135.94 86.86 126.68"/>
  <polygon class="cls-2" points="131.44 126.68 140.7 113.65 149.96 126.68 163 135.94 149.96 145.2 140.7 158.24 131.44 145.2 118.41 135.94 131.44 126.68"/>
  <polygon class="cls-2" points="21.38 42.67 30.64 29.64 39.89 42.67 52.93 51.93 39.89 61.19 30.64 74.23 21.38 61.19 8.34 51.93 21.38 42.67"/>
  <polygon class="cls-1" points="26.35 56.21 20.32 51.93 26.35 47.65 30.64 41.62 34.92 47.65 40.95 51.93 34.92 56.21 30.64 62.24 26.35 56.21"/>
  <polygon class="cls-2" points="42.19 70.06 51.45 57.02 60.71 70.06 73.75 79.32 60.71 88.58 51.45 101.61 42.19 88.58 29.16 79.32 42.19 70.06"/>
  <polygon class="cls-1" points="47.17 83.6 41.14 79.32 47.17 75.04 51.45 69.01 55.74 75.04 61.76 79.32 55.74 83.6 51.45 89.63 47.17 83.6"/>
  <polygon class="cls-2" points="86.86 70.06 96.11 57.02 105.37 70.06 118.41 79.32 105.37 88.58 96.11 101.61 86.86 88.58 73.82 79.32 86.86 70.06"/>
  <polygon class="cls-1" points="91.83 83.6 85.8 79.32 91.83 75.04 96.11 69.01 100.4 75.04 106.43 79.32 100.4 83.6 96.11 89.63 91.83 83.6"/>
  <polygon class="cls-2" points="130.93 70.8 140.19 57.76 149.45 70.8 162.48 80.06 149.45 89.32 140.19 102.35 130.93 89.32 117.89 80.06 130.93 70.8"/>
  <polygon class="cls-1" points="135.91 84.34 129.88 80.06 135.91 75.77 140.19 69.75 144.47 75.77 150.5 80.06 144.47 84.34 140.19 90.37 135.91 84.34"/>
  <polygon class="cls-2" points="176.11 70.06 185.36 57.02 194.62 70.06 207.66 79.32 194.62 88.58 185.36 101.61 176.11 88.58 163.07 79.32 176.11 70.06"/>
  <polygon class="cls-1" points="181.08 83.6 175.05 79.32 181.08 75.04 185.36 69.01 189.65 75.04 195.68 79.32 189.65 83.6 185.36 89.63 181.08 83.6"/>
  <polygon class="cls-2" points="42.19 16.02 51.45 2.99 60.71 16.02 73.75 25.28 60.71 34.54 51.45 47.57 42.19 34.54 29.16 25.28 42.19 16.02"/>
</svg>