<?xml version="1.0" encoding="UTF-8"?>
<svg id="Layer_1" data-name="Layer 1" xmlns="http://www.w3.org/2000/svg" viewBox="0 0 216 216">
  <defs>
    <style>
      .cls-1 {
        fill: #f6ecd2;
      }

      .cls-2 {
        fill: #dcaa27;
      }
    </style>
  </defs>
  <polygon class="cls-2" points="15.34 127.59 25.25 113.65 35.15 127.59 49.09 137.5 35.15 147.4 25.25 161.34 15.34 147.4 1.4 137.5 15.34 127.59"/>
  <polygon class="cls-1" points="20.67 142.08 14.22 137.5 20.67 132.91 25.25 126.47 29.83 132.91 36.28 137.5 29.83 142.08 25.25 148.53 20.67 142.08"/>
  <polygon class="cls-2" points="37.61 156.89 47.52 142.94 57.42 156.89 71.36 166.79 57.42 176.69 47.52 190.64 37.61 176.69 23.67 166.79 37.61 156.89"/>
  <polygon class="cls-2" points="85.38 156.89 95.29 142.94 105.19 156.89 119.13 166.79 105.19 176.69 95.29 190.64 85.38 176.69 71.44 166.79 85.38 156.89"/>
  <polygon class="cls-1" points="90.71 171.37 84.26 166.79 90.71 162.21 95.29 155.76 99.87 162.21 106.32 166.79 99.87 171.37 95.29 177.82 90.71 171.37"/>
  <polygon class="cls-2" points="132.53 157.68 142.43 143.73 152.34 157.68 166.28 167.58 152.34 177.48 142.43 191.43 132.53 177.48 118.58 167.58 132.53 157.68"/>
  <polygon class="cls-1" points="137.85 172.16 131.4 167.58 137.85 163 142.43 156.55 147.01 163 153.46 167.58 147.01 172.16 142.43 178.61 137.85 172.16"/>
  <polygon class="cls-2" points="180.85 156.89 190.75 142.94 200.66 156.89 214.6 166.79 200.66 176.69 190.75 190.64 180.85 176.69 166.91 166.79 180.85 156.89"/>
  <polygon class="cls-1" points="186.17 171.37 179.72 166.79 186.17 162.21 190.75 155.76 195.33 162.21 201.78 166.79 195.33 171.37 190.75 177.82 186.17 171.37"/>
  <polygon class="cls-2" points="15.34 69.79 25.25 55.85 35.15 69.79 49.09 79.69 35.15 89.6 25.25 103.54 15.34 89.6 1.4 79.69 15.34 69.79"/>
  <polygon class="cls-2" points="63.11 69.79 73.02 55.85 82.92 69.79 96.87 79.69 82.92 89.6 73.02 103.54 63.11 89.6 49.17 79.69 63.11 69.79"/>
  <polygon class="cls-1" points="68.44 84.27 61.99 79.69 68.44 75.11 73.02 68.66 77.6 75.11 84.05 79.69 77.6 84.27 73.02 90.72 68.44 84.27"/>
  <polygon class="cls-2" points="110.81 69.39 120.71 55.45 130.62 69.39 144.56 79.3 130.62 89.2 120.71 103.14 110.81 89.2 96.87 79.3 110.81 69.39"/>
  <polygon class="cls-1" points="116.13 83.88 109.68 79.3 116.13 74.72 120.71 68.27 125.29 74.72 131.74 79.3 125.29 83.88 120.71 90.33 116.13 83.88"/>
  <polygon class="cls-2" points="37.61 99.08 47.52 85.14 57.42 99.08 71.36 108.99 57.42 118.89 47.52 132.84 37.61 118.89 23.67 108.99 37.61 99.08"/>
  <polygon class="cls-1" points="42.94 113.57 36.49 108.99 42.94 104.41 47.52 97.96 52.1 104.41 58.55 108.99 52.1 113.57 47.52 120.02 42.94 113.57"/>
  <polygon class="cls-2" points="85.38 99.08 95.29 85.14 105.19 99.08 119.13 108.99 105.19 118.89 95.29 132.84 85.38 118.89 71.44 108.99 85.38 99.08"/>
  <polygon class="cls-2" points="37.61 38.52 47.52 24.57 57.42 38.52 71.36 48.42 57.42 58.32 47.52 72.27 37.61 58.32 23.67 48.42 37.61 38.52"/>
  <polygon class="cls-1" points="42.93 53 36.49 48.42 42.93 43.84 47.52 37.39 52.1 43.84 58.54 48.42 52.1 53 47.52 59.45 42.93 53"/>
  <polygon class="cls-2" points="85.38 38.52 95.29 24.57 105.19 38.52 119.13 48.42 105.19 58.32 95.29 72.27 85.38 58.32 71.44 48.42 85.38 38.52"/>
  <polygon class="cls-1" points="90.71 53 84.26 48.42 90.71 43.84 95.29 37.39 99.87 43.84 106.32 48.42 99.87 53 95.29 59.45 90.71 53"/>
  <polygon class="cls-2" points="132.53 39.31 142.43 25.36 152.34 39.31 166.28 49.21 152.34 59.11 142.43 73.06 132.53 59.11 118.58 49.21 132.53 39.31"/>
  <polygon class="cls-1" points="137.85 53.79 131.4 49.21 137.85 44.63 142.43 38.18 147.01 44.63 153.46 49.21 147.01 53.79 142.43 60.24 137.85 53.79"/>
</svg>