<?xml version="1.0" encoding="UTF-8"?>
<svg id="Layer_1" data-name="Layer 1" xmlns="http://www.w3.org/2000/svg" viewBox="0 0 216 216">
  <defs>
    <style>
      .cls-1 {
        fill: #f6ecd2;
        stroke: #00696e;
        stroke-miterlimit: 10;
        stroke-width: 5px;
      }
    </style>
  </defs>
  <path class="cls-1" d="M209.96,69.52c0-19.79-16.04-35.84-35.84-35.84-19.79,0-35.84,16.04-35.84,35.84,0,1.1.06,2.18.15,3.25-9.61-2.11-19.84-3.25-30.44-3.25s-20.83,1.14-30.44,3.25c.1-1.07.15-2.16.15-3.25,0-19.79-16.04-35.84-35.84-35.84-19.79,0-35.84,16.04-35.84,35.84,0,13.29,7.24,24.88,17.98,31.07-10.95,24.79-17.98,40.71-17.98,40.71,0,0,.05.03.05.04,26.97,17.73,62.38,41.01,101.9,40.98,38.65-.03,73.11-22.34,101.9-40.98,0,0,.05-.03.06-.04,0,0-6.28-14.21-17.98-40.71,3.34-2.08,17.98-7.86,17.98-31.07Z"/>
</svg>